<svg xmlns="http://www.w3.org/2000/svg" xmlns:xlink="http://www.w3.org/1999/xlink" width="1280" zoomAndPan="magnify" viewBox="0 0 960 479.999983" height="640" preserveAspectRatio="xMidYMid meet" version="1.0"><defs><g/><clipPath id="id1"><path d="M 356 171 L 428.609375 171 L 428.609375 367 L 356 367 Z M 356 171 " clip-rule="nonzero"/></clipPath><clipPath id="id2"><path d="M 311 171 L 354 171 L 354 367 L 311 367 Z M 311 171 " clip-rule="nonzero"/></clipPath><clipPath id="id3"><path d="M 311.789062 171.929688 L 427.289062 171.929688 L 427.289062 365.429688 L 311.789062 365.429688 Z M 311.789062 171.929688 " clip-rule="nonzero"/></clipPath><clipPath id="id4"><path d="M 462.34375 229 L 566 229 L 566 248.976562 L 462.34375 248.976562 Z M 462.34375 229 " clip-rule="nonzero"/></clipPath><clipPath id="id5"><path d="M 562 228.726562 L 566.59375 228.726562 L 566.59375 243 L 562 243 Z M 562 228.726562 " clip-rule="nonzero"/></clipPath><clipPath id="id6"><path d="M 554 238 L 566.59375 238 L 566.59375 244 L 554 244 Z M 554 238 " clip-rule="nonzero"/></clipPath></defs><g clip-path="url(#id1)"><path fill="#cfcece" d="M 428.609375 171.316406 L 428.609375 366.664062 L 356.820312 366.664062 L 356.820312 171.316406 Z M 428.609375 171.316406 " fill-opacity="1" fill-rule="nonzero"/></g><g clip-path="url(#id2)"><path fill="#cfcece" d="M 353.019531 171.316406 L 310.859375 171.316406 L 310.859375 366.664062 L 353.019531 366.664062 Z M 353.019531 171.316406 " fill-opacity="1" fill-rule="nonzero"/></g><path fill="#cfcece" d="M 330.609375 132.625 L 351.5 167.523438 L 311.238281 167.523438 Z M 330.609375 132.625 " fill-opacity="1" fill-rule="nonzero"/><path fill="#cfcece" d="M 337.445312 136.800781 L 333.648438 130.730469 L 402.019531 130.730469 L 426.710938 167.523438 L 356.058594 167.523438 Z M 337.445312 136.800781 " fill-opacity="1" fill-rule="nonzero"/><path fill="#cfcece" d="M 333.648438 130.730469 L 337.445312 136.800781 Z M 333.648438 130.730469 " fill-opacity="1" fill-rule="nonzero"/><path fill="#cfcece" d="M 401.261719 113.28125 L 333.648438 113.28125 L 333.648438 127.316406 L 401.261719 127.316406 Z M 401.261719 113.28125 " fill-opacity="1" fill-rule="nonzero"/><g clip-path="url(#id3)"><path fill="#000000" d="M 576.453125 373.78125 C 572.367188 354.613281 562.980469 336.917969 550.023438 323.960938 C 523.296875 297.234375 519.703125 271.09375 514.730469 234.914062 C 513.023438 222.496094 511.089844 208.417969 507.964844 192.953125 C 504.035156 173.519531 491.503906 160.097656 471.726562 154.128906 C 456.695312 149.597656 438.097656 149.597656 419.355469 154.132812 C 401.730469 158.398438 386.339844 166.128906 377.132812 175.335938 C 365.726562 186.746094 363.433594 201 361.414062 213.574219 C 358.34375 232.695312 355.910156 247.796875 323.109375 244.300781 C 274.230469 239.085938 242.019531 245.367188 227.359375 262.964844 C 216.050781 276.546875 219.183594 292.710938 221.054688 299.03125 C 225.953125 315.554688 239.691406 321.207031 252.980469 326.675781 C 267.773438 332.761719 281.75 338.511719 283.703125 358.410156 C 285.300781 374.65625 292.625 387.902344 304.882812 396.726562 C 321.902344 408.976562 347.515625 412.007812 377.007812 405.257812 C 401.976562 399.539062 414.492188 410.984375 430.332031 425.476562 C 446.773438 440.515625 467.238281 459.238281 509.121094 461.464844 C 510.851562 461.554688 512.554688 461.601562 514.238281 461.601562 C 541.707031 461.601562 562.203125 449.355469 572.273438 426.765625 C 579.023438 411.617188 580.507812 392.800781 576.453125 373.78125 Z M 570.964844 426.179688 C 560.542969 449.574219 538.609375 461.609375 509.199219 460.03125 C 467.828125 457.832031 448.421875 440.082031 431.300781 424.417969 C 418.519531 412.726562 407.175781 402.347656 389.199219 402.347656 C 385.359375 402.347656 381.210938 402.824219 376.6875 403.859375 C 347.605469 410.515625 322.402344 407.570312 305.722656 395.5625 C 293.808594 386.988281 286.6875 374.09375 285.132812 358.269531 C 283.089844 337.515625 268.058594 331.328125 253.523438 325.347656 C 240.546875 320.007812 227.132812 314.488281 222.429688 298.621094 C 220.625 292.523438 217.59375 276.929688 228.460938 263.882812 C 242.59375 246.914062 275.273438 240.636719 322.960938 245.722656 C 357.117188 249.367188 359.765625 232.886719 362.828125 213.800781 C 364.816406 201.4375 367.066406 187.429688 378.144531 176.347656 C 387.171875 167.320312 402.316406 159.730469 419.691406 155.523438 C 438.1875 151.046875 456.519531 151.039062 471.3125 155.5 C 490.554688 161.304688 502.742188 174.351562 506.558594 193.234375 C 509.675781 208.65625 511.605469 222.710938 513.3125 235.109375 C 518.324219 271.5625 521.945312 297.902344 549.011719 324.972656 C 575.019531 350.984375 584.664062 395.441406 570.964844 426.179688 Z M 542.207031 323.011719 C 516.875 297.679688 513.46875 272.902344 508.753906 238.609375 C 507.136719 226.832031 505.300781 213.488281 502.339844 198.824219 C 498.609375 180.386719 486.722656 167.648438 467.957031 161.988281 C 453.703125 157.6875 436.0625 157.6875 418.285156 161.988281 C 401.570312 166.035156 386.972656 173.367188 378.238281 182.101562 C 367.414062 192.925781 365.242188 206.445312 363.328125 218.375 C 360.417969 236.484375 358.109375 250.785156 327.050781 247.472656 C 280.699219 242.53125 250.148438 248.488281 236.238281 265.1875 C 225.507812 278.074219 228.480469 293.414062 230.257812 299.410156 C 234.902344 315.09375 247.9375 320.457031 260.542969 325.644531 C 274.558594 331.414062 287.796875 336.859375 289.648438 355.699219 C 291.164062 371.113281 298.113281 383.683594 309.742188 392.054688 C 325.890625 403.675781 350.183594 406.550781 378.152344 400.148438 C 401.804688 394.730469 413.664062 405.578125 428.675781 419.308594 C 444.269531 433.574219 463.675781 451.324219 503.398438 453.4375 C 505.042969 453.523438 506.65625 453.570312 508.25 453.566406 C 534.308594 453.566406 553.757812 441.949219 563.308594 420.519531 C 569.710938 406.152344 571.117188 388.300781 567.273438 370.261719 C 563.398438 352.082031 554.496094 335.300781 542.207031 323.011719 Z M 562 419.933594 C 552.125 442.097656 531.339844 453.5 503.472656 452.007812 C 464.265625 449.921875 445.871094 433.097656 429.644531 418.25 C 417.519531 407.160156 406.765625 397.320312 389.707031 397.320312 C 386.0625 397.320312 382.128906 397.769531 377.835938 398.75 C 350.269531 405.0625 326.386719 402.269531 310.582031 390.894531 C 299.296875 382.769531 292.550781 370.550781 291.078125 355.5625 C 289.140625 335.863281 274.878906 329.996094 261.089844 324.320312 C 248.796875 319.261719 236.082031 314.03125 231.628906 299.003906 C 229.917969 293.226562 227.050781 278.460938 237.339844 266.101562 C 250.730469 250.027344 281.695312 244.082031 326.898438 248.898438 C 359.316406 252.359375 361.832031 236.714844 364.742188 218.605469 C 366.625 206.890625 368.753906 193.613281 379.25 183.117188 C 387.804688 174.5625 402.15625 167.367188 418.621094 163.382812 C 436.152344 159.140625 453.527344 159.132812 467.542969 163.359375 C 485.773438 168.859375 497.320312 181.222656 500.933594 199.109375 C 503.890625 213.726562 505.71875 227.050781 507.335938 238.804688 C 512.089844 273.375 515.523438 298.351562 541.195312 324.023438 C 565.84375 348.675781 574.980469 390.804688 562 419.933594 Z M 502.78125 242.304688 C 501.25 231.171875 499.515625 218.554688 496.714844 204.695312 C 493.1875 187.25 481.941406 175.199219 464.191406 169.84375 C 450.707031 165.777344 434.027344 165.777344 417.21875 169.847656 C 401.410156 173.671875 387.605469 180.605469 379.34375 188.867188 C 369.105469 199.109375 367.050781 211.894531 365.238281 223.175781 C 362.492188 240.273438 360.316406 253.773438 330.992188 250.648438 C 287.164062 245.972656 258.273438 251.613281 245.121094 267.402344 C 234.960938 279.601562 237.773438 294.117188 239.457031 299.792969 C 243.851562 314.632812 256.183594 319.707031 268.105469 324.613281 C 281.34375 330.0625 293.847656 335.207031 295.597656 352.992188 C 297.03125 367.570312 303.605469 379.464844 314.605469 387.382812 C 329.875 398.375 352.851562 401.09375 379.300781 395.039062 C 401.644531 389.925781 412.84375 400.171875 427.019531 413.140625 C 441.765625 426.628906 460.113281 443.414062 497.675781 445.410156 C 499.230469 445.492188 500.757812 445.535156 502.265625 445.535156 C 526.910156 445.53125 545.308594 434.542969 554.339844 414.273438 C 560.398438 400.683594 561.726562 383.804688 558.089844 366.742188 C 554.425781 349.550781 546.007812 333.683594 534.386719 322.058594 C 510.453125 298.125 507.234375 274.710938 502.78125 242.304688 Z M 553.035156 413.691406 C 543.703125 434.621094 524.089844 445.386719 497.75 443.980469 C 460.703125 442.011719 443.324219 426.113281 427.988281 412.085938 C 416.523438 401.597656 406.347656 392.285156 390.214844 392.285156 C 386.765625 392.285156 383.042969 392.710938 378.980469 393.644531 C 352.9375 399.605469 330.375 396.96875 315.441406 386.21875 C 304.785156 378.546875 298.414062 367.011719 297.023438 352.851562 C 295.1875 334.207031 281.699219 328.65625 268.652344 323.289062 C 257.039062 318.511719 245.03125 313.570312 240.828125 299.386719 C 239.214844 293.929688 236.503906 279.988281 246.222656 268.320312 C 258.867188 253.136719 288.132812 247.519531 330.839844 252.074219 C 361.523438 255.347656 363.898438 240.542969 366.652344 223.40625 C 368.429688 212.335938 370.445312 199.792969 380.355469 189.882812 C 388.4375 181.800781 401.996094 175.003906 417.554688 171.238281 C 434.121094 167.230469 450.535156 167.222656 463.777344 171.214844 C 480.992188 176.410156 491.894531 188.085938 495.3125 204.976562 C 498.105469 218.792969 499.835938 231.386719 501.363281 242.496094 C 505.855469 275.183594 509.101562 298.796875 533.375 323.074219 C 556.664062 346.363281 565.300781 386.167969 553.035156 413.691406 Z M 496.804688 245.996094 C 495.363281 235.511719 493.726562 223.625 491.089844 210.566406 C 487.765625 194.117188 477.160156 182.753906 460.421875 177.703125 C 447.714844 173.871094 431.992188 173.871094 416.148438 177.703125 C 401.246094 181.3125 388.238281 187.847656 380.449219 195.636719 C 370.792969 205.292969 368.855469 217.34375 367.148438 227.976562 C 364.566406 244.0625 362.519531 256.765625 334.933594 253.824219 C 293.628906 249.417969 266.398438 254.734375 254 269.625 C 244.417969 281.128906 247.070312 294.820312 248.65625 300.171875 C 252.804688 314.175781 264.429688 318.957031 275.667969 323.585938 C 288.128906 328.710938 299.894531 333.550781 301.542969 350.285156 C 302.894531 364.03125 309.09375 375.242188 319.46875 382.710938 C 333.863281 393.074219 355.515625 395.636719 380.449219 389.929688 C 401.472656 385.117188 412.015625 394.761719 425.367188 406.976562 C 439.261719 419.683594 456.550781 435.503906 491.953125 437.386719 C 493.417969 437.464844 494.859375 437.5 496.28125 437.5 C 519.515625 437.5 536.859375 427.140625 545.375 408.027344 C 551.082031 395.214844 552.339844 379.304688 548.910156 363.226562 C 545.457031 347.023438 537.523438 332.066406 526.570312 321.109375 C 504.03125 298.570312 501 276.519531 496.804688 245.996094 Z M 544.066406 407.441406 C 535.285156 427.144531 516.808594 437.273438 492.027344 435.957031 C 457.140625 434.101562 440.773438 419.128906 426.332031 405.917969 C 415.523438 396.03125 405.933594 387.257812 390.722656 387.257812 C 387.46875 387.257812 383.960938 387.65625 380.125 388.535156 C 355.605469 394.148438 334.359375 391.667969 320.304688 381.550781 C 310.269531 374.328125 304.277344 363.46875 302.964844 350.144531 C 301.234375 332.554688 288.515625 327.320312 276.214844 322.257812 C 265.28125 317.761719 253.980469 313.109375 250.027344 299.765625 C 248.507812 294.636719 245.957031 281.515625 255.097656 270.542969 C 267.003906 256.246094 294.554688 250.960938 334.78125 255.25 C 363.734375 258.339844 365.964844 244.375 368.5625 228.207031 C 370.234375 217.789062 372.132812 205.976562 381.460938 196.648438 C 396.425781 181.683594 433.195312 170.988281 460.003906 179.074219 C 476.207031 183.964844 486.472656 194.953125 489.683594 210.851562 C 492.3125 223.863281 493.945312 235.726562 495.382812 246.191406 C 499.617188 276.992188 502.675781 299.246094 525.554688 322.125 C 547.484375 344.054688 555.617188 381.53125 544.066406 407.441406 Z M 490.828125 249.691406 C 489.476562 239.847656 487.941406 228.695312 485.464844 216.4375 C 482.339844 200.984375 472.378906 190.304688 456.652344 185.5625 C 444.714844 181.960938 429.953125 181.964844 415.078125 185.5625 C 401.085938 188.949219 388.867188 195.085938 381.554688 202.402344 C 372.480469 211.472656 370.664062 222.792969 369.058594 232.78125 C 366.636719 247.851562 364.726562 259.75 338.871094 257 C 300.089844 252.863281 274.523438 257.859375 262.878906 271.84375 C 253.871094 282.65625 256.363281 295.523438 257.855469 300.554688 C 261.753906 313.714844 272.671875 318.207031 283.234375 322.554688 C 294.914062 327.359375 305.945312 331.898438 307.488281 347.574219 C 308.757812 360.488281 314.582031 371.023438 324.328125 378.039062 C 337.847656 387.773438 358.1875 390.179688 381.59375 384.820312 C 401.300781 380.308594 411.191406 389.355469 423.710938 400.808594 C 436.753906 412.742188 452.992188 427.59375 486.230469 429.359375 C 487.605469 429.433594 488.960938 429.46875 490.292969 429.46875 C 512.117188 429.46875 528.40625 419.734375 536.410156 401.78125 C 541.769531 389.75 542.949219 374.808594 539.730469 359.707031 C 536.488281 344.492188 529.035156 330.445312 518.75 320.160156 C 497.609375 299.019531 494.765625 278.328125 490.828125 249.691406 Z M 535.101562 401.199219 C 526.867188 419.671875 509.542969 429.160156 486.304688 427.929688 C 453.578125 426.191406 438.226562 412.144531 424.679688 399.75 C 414.527344 390.464844 405.519531 382.226562 391.230469 382.226562 C 388.175781 382.226562 384.875 382.601562 381.273438 383.425781 C 358.273438 388.691406 338.347656 386.363281 325.164062 376.878906 C 315.761719 370.109375 310.140625 359.925781 308.914062 347.433594 C 307.285156 330.902344 295.335938 325.984375 283.78125 321.226562 C 273.53125 317.011719 262.933594 312.652344 259.230469 300.148438 C 257.804688 295.339844 255.414062 283.042969 263.980469 272.757812 C 275.140625 259.355469 300.992188 254.402344 338.722656 258.421875 C 365.933594 261.328125 368.035156 248.203125 370.476562 233.007812 C 372.042969 223.234375 373.824219 212.160156 382.566406 203.414062 C 396.601562 189.378906 431.089844 179.347656 456.238281 186.933594 C 471.425781 191.515625 481.050781 201.816406 484.0625 216.71875 C 486.53125 228.933594 488.058594 240.066406 489.410156 249.886719 C 493.382812 278.800781 496.257812 299.691406 517.738281 321.171875 C 538.304688 341.742188 545.933594 376.894531 535.101562 401.199219 Z M 484.855469 253.386719 C 483.589844 244.1875 482.15625 233.761719 479.839844 222.308594 C 476.917969 207.847656 467.597656 197.859375 452.882812 193.421875 C 428.21875 185.980469 396.078125 195.75 382.660156 209.167969 C 374.171875 217.660156 372.472656 228.242188 370.972656 237.582031 C 368.933594 250.269531 367.285156 260.550781 349.269531 260.546875 C 347.316406 260.546875 345.171875 260.425781 342.816406 260.175781 C 306.558594 256.308594 282.652344 260.984375 271.757812 274.0625 C 263.328125 284.1875 265.660156 296.230469 267.054688 300.9375 C 270.707031 313.257812 280.917969 317.460938 290.796875 321.523438 C 301.699219 326.011719 311.996094 330.246094 313.433594 344.867188 C 314.621094 356.949219 320.070312 366.804688 329.191406 373.371094 C 341.835938 382.472656 360.855469 384.726562 382.742188 379.714844 C 401.136719 375.503906 410.367188 383.949219 422.054688 394.640625 C 434.25 405.800781 449.429688 419.683594 480.507812 421.335938 C 481.792969 421.402344 483.058594 421.4375 484.308594 421.4375 C 504.722656 421.4375 519.960938 412.332031 527.445312 395.535156 C 532.457031 384.285156 533.5625 370.3125 530.550781 356.191406 C 527.519531 341.964844 520.550781 328.832031 510.933594 319.214844 C 491.1875 299.464844 488.53125 280.136719 484.855469 253.386719 Z M 526.136719 394.953125 C 518.453125 412.195312 502.285156 421.066406 480.582031 419.902344 C 450.015625 418.28125 435.675781 405.160156 423.023438 393.585938 C 413.53125 384.902344 405.105469 377.195312 391.738281 377.195312 C 388.878906 377.195312 385.792969 377.546875 382.421875 378.320312 C 360.941406 383.238281 342.335938 381.066406 330.027344 372.207031 C 321.25 365.886719 316.003906 356.386719 314.859375 344.726562 C 313.335938 329.25 302.15625 324.648438 291.34375 320.199219 C 281.777344 316.261719 271.882812 312.191406 268.429688 300.527344 C 267.097656 296.042969 264.871094 284.570312 272.859375 274.980469 C 283.277344 262.46875 307.417969 257.839844 342.660156 261.601562 C 345.066406 261.855469 347.261719 261.980469 349.265625 261.980469 C 368.5 261.976562 370.316406 250.6875 372.382812 237.808594 C 373.851562 228.683594 375.511719 218.339844 383.671875 210.179688 C 396.78125 197.074219 428.988281 187.710938 452.46875 194.792969 C 466.644531 199.070312 475.625 208.679688 478.4375 222.589844 C 480.742188 234.003906 482.171875 244.402344 483.433594 253.582031 C 487.148438 280.609375 489.835938 300.136719 509.917969 320.222656 C 529.125 339.433594 536.25 372.257812 526.136719 394.953125 Z M 478.878906 257.082031 C 477.703125 248.527344 476.371094 238.832031 474.214844 228.179688 C 471.496094 214.714844 462.8125 205.410156 449.113281 201.277344 C 426.164062 194.355469 396.253906 203.445312 383.765625 215.933594 C 375.859375 223.839844 374.277344 233.691406 372.882812 242.382812 C 370.785156 255.429688 369.125 265.734375 346.753906 263.351562 C 313.023438 259.75 290.777344 264.101562 280.636719 276.28125 C 272.78125 285.714844 274.957031 296.929688 276.253906 301.316406 C 279.65625 312.796875 289.164062 316.710938 298.363281 320.492188 C 308.484375 324.660156 318.042969 328.59375 319.378906 342.15625 C 320.484375 353.40625 325.558594 362.585938 334.050781 368.695312 C 345.820312 377.167969 363.519531 379.269531 383.886719 374.605469 C 400.964844 370.695312 409.542969 378.542969 420.398438 388.472656 C 431.746094 398.855469 445.867188 411.773438 474.785156 413.308594 C 475.980469 413.371094 477.160156 413.402344 478.320312 413.402344 C 497.324219 413.402344 511.507812 404.925781 518.476562 389.289062 C 523.144531 378.816406 524.171875 365.8125 521.371094 352.671875 C 518.546875 339.433594 512.0625 327.210938 503.113281 318.261719 C 484.765625 299.910156 482.296875 281.945312 478.878906 257.082031 Z M 517.167969 388.707031 C 510.03125 404.71875 495.011719 412.949219 474.859375 411.878906 C 446.457031 410.367188 433.125 398.175781 421.367188 387.417969 C 412.53125 379.335938 404.691406 372.160156 392.246094 372.160156 C 389.582031 372.160156 386.707031 372.488281 383.566406 373.210938 C 363.609375 377.777344 346.320312 375.761719 334.886719 367.535156 C 326.738281 361.667969 321.867188 352.84375 320.804688 342.015625 C 319.382812 327.59375 308.972656 323.3125 298.90625 319.167969 C 290.019531 315.511719 280.832031 311.730469 277.628906 300.910156 C 276.394531 296.746094 274.324219 286.097656 281.734375 277.199219 C 291.414062 265.574219 313.847656 261.277344 346.601562 264.773438 C 370.332031 267.308594 372.167969 255.863281 374.296875 242.609375 C 375.65625 234.132812 377.199219 224.523438 384.777344 216.945312 C 396.953125 204.769531 426.878906 196.066406 448.699219 202.648438 C 461.863281 206.621094 470.199219 215.546875 472.808594 228.460938 C 474.957031 239.070312 476.285156 248.742188 477.457031 257.277344 C 480.914062 282.417969 483.410156 300.582031 502.101562 319.273438 C 519.945312 337.121094 526.566406 367.621094 517.167969 388.707031 Z M 472.902344 260.777344 C 471.816406 252.867188 470.582031 243.902344 468.589844 234.046875 C 466.070312 221.578125 458.03125 212.964844 445.34375 209.136719 C 424.105469 202.730469 396.429688 211.144531 384.871094 222.703125 C 377.550781 230.023438 376.085938 239.140625 374.792969 247.1875 C 372.859375 259.222656 371.328125 268.726562 350.695312 266.527344 C 319.488281 263.195312 298.90625 267.226562 289.515625 278.5 C 282.234375 287.242188 284.25 297.636719 285.453125 301.699219 C 288.605469 312.335938 297.410156 315.960938 305.921875 319.464844 C 315.265625 323.308594 324.09375 326.9375 325.320312 339.449219 C 326.347656 349.867188 331.046875 358.363281 338.910156 364.027344 C 349.804688 371.867188 366.183594 373.8125 385.03125 369.5 C 400.800781 365.890625 408.714844 373.136719 418.742188 382.308594 C 429.238281 391.910156 442.304688 403.859375 469.058594 405.285156 C 470.167969 405.34375 471.257812 405.371094 472.332031 405.371094 C 489.925781 405.371094 503.058594 397.523438 509.511719 383.042969 C 513.828125 373.351562 514.78125 361.316406 512.1875 349.15625 C 509.578125 336.902344 503.578125 325.59375 495.292969 317.3125 C 478.34375 300.359375 476.0625 283.757812 472.902344 260.777344 Z M 508.203125 382.460938 C 501.613281 397.246094 487.746094 404.84375 469.136719 403.851562 C 442.894531 402.457031 430.578125 391.191406 419.710938 381.25 C 411.535156 373.769531 404.277344 367.132812 392.753906 367.132812 C 390.285156 367.132812 387.621094 367.433594 384.710938 368.101562 C 366.273438 372.320312 350.304688 370.464844 339.746094 362.863281 C 332.226562 357.449219 327.730469 349.304688 326.746094 339.308594 C 325.433594 325.941406 315.792969 321.976562 306.46875 318.136719 C 298.265625 314.761719 289.78125 311.273438 286.824219 301.292969 C 285.6875 297.449219 283.777344 287.628906 290.613281 279.417969 C 299.550781 268.6875 320.273438 264.722656 350.542969 267.949219 C 372.539062 270.296875 374.234375 259.691406 376.207031 247.410156 C 377.464844 239.582031 378.890625 230.707031 385.882812 223.714844 C 397.128906 212.464844 424.773438 204.425781 444.929688 210.507812 C 457.078125 214.171875 464.777344 222.410156 467.183594 234.332031 C 469.167969 244.140625 470.398438 253.082031 471.480469 260.972656 C 474.679688 284.226562 476.988281 301.03125 494.28125 318.324219 C 510.765625 334.8125 516.882812 362.984375 508.203125 382.460938 Z M 466.925781 264.46875 C 465.929688 257.203125 464.796875 248.96875 462.964844 239.917969 C 460.648438 228.445312 453.25 220.519531 441.574219 216.996094 C 422.050781 211.105469 396.601562 218.839844 385.976562 229.46875 C 379.238281 236.207031 377.890625 244.589844 376.703125 251.988281 C 375.050781 262.277344 373.8125 270.003906 359.867188 270.003906 C 358.289062 270.003906 356.550781 269.90625 354.636719 269.699219 C 325.953125 266.640625 307.03125 270.347656 298.394531 280.71875 C 291.691406 288.769531 293.542969 298.339844 294.652344 302.078125 C 297.554688 311.875 305.65625 315.210938 313.488281 318.433594 C 322.050781 321.957031 330.140625 325.285156 331.269531 336.738281 C 332.210938 346.324219 336.535156 354.144531 343.773438 359.355469 C 353.792969 366.566406 368.851562 368.355469 386.179688 364.390625 C 400.628906 361.082031 407.890625 367.726562 417.085938 376.140625 C 426.734375 384.96875 438.742188 395.949219 463.335938 397.257812 C 464.355469 397.3125 465.359375 397.339844 466.347656 397.339844 C 482.527344 397.339844 494.609375 390.117188 500.546875 376.796875 C 508.867188 358.117188 503.25 332.136719 487.476562 316.359375 C 471.921875 300.804688 469.828125 285.5625 466.925781 264.46875 Z M 499.238281 376.210938 C 493.195312 389.769531 480.488281 396.738281 463.414062 395.828125 C 439.332031 394.546875 428.027344 384.207031 418.054688 375.082031 C 410.535156 368.207031 403.863281 362.101562 393.261719 362.101562 C 390.992188 362.101562 388.539062 362.382812 385.859375 362.996094 C 368.941406 366.867188 354.289062 365.160156 344.609375 358.191406 C 337.714844 353.230469 333.597656 345.765625 332.695312 336.601562 C 331.484375 324.289062 322.613281 320.640625 314.03125 317.109375 C 306.511719 314.011719 298.734375 310.8125 296.027344 301.671875 C 294.984375 298.152344 293.234375 289.15625 299.496094 281.636719 C 307.691406 271.796875 326.703125 268.164062 354.484375 271.125 C 374.738281 273.285156 376.300781 263.519531 378.117188 252.214844 C 379.273438 245.03125 380.578125 236.890625 386.988281 230.480469 C 397.308594 220.160156 422.667969 212.785156 441.164062 218.367188 C 452.300781 221.726562 459.355469 229.277344 461.5625 240.203125 C 463.382812 249.210938 464.511719 257.421875 465.507812 264.664062 C 468.445312 286.035156 470.570312 301.476562 486.464844 317.375 C 501.589844 332.5 507.199219 358.34375 499.238281 376.210938 Z M 460.949219 268.164062 C 460.039062 261.542969 459.007812 254.039062 457.34375 245.789062 C 455.222656 235.308594 448.46875 228.070312 437.808594 224.855469 C 419.988281 219.480469 396.777344 226.539062 387.082031 236.234375 C 380.925781 242.386719 379.699219 250.039062 378.613281 256.789062 C 376.941406 267.191406 375.730469 274.703125 358.574219 272.875 C 332.417969 270.085938 315.160156 273.472656 307.273438 282.9375 C 301.144531 290.296875 302.839844 299.042969 303.851562 302.460938 C 306.503906 311.417969 313.902344 314.460938 321.050781 317.402344 C 328.835938 320.605469 336.191406 323.632812 337.214844 334.03125 C 338.074219 342.785156 342.023438 349.925781 348.632812 354.683594 C 357.78125 361.265625 371.523438 362.898438 387.324219 359.28125 C 400.460938 356.273438 407.066406 362.320312 415.433594 369.972656 C 424.230469 378.023438 435.179688 388.039062 457.613281 389.230469 C 458.542969 389.28125 459.457031 389.304688 460.363281 389.304688 C 475.132812 389.304688 486.160156 382.710938 491.578125 370.550781 C 499.175781 353.507812 494.050781 329.804688 479.65625 315.410156 C 465.5 301.25 463.59375 287.375 460.949219 268.164062 Z M 490.269531 369.96875 C 484.777344 382.292969 473.199219 388.636719 457.691406 387.800781 C 435.769531 386.636719 425.480469 377.222656 416.398438 368.917969 C 409.539062 362.640625 403.449219 357.066406 393.769531 357.066406 C 391.695312 357.066406 389.453125 357.324219 387.003906 357.882812 C 371.609375 361.410156 358.277344 359.859375 349.472656 353.519531 C 343.203125 349.011719 339.460938 342.222656 338.640625 333.890625 C 337.53125 322.636719 329.429688 319.300781 321.597656 316.078125 C 314.441406 313.132812 307.683594 310.351562 305.226562 302.054688 C 304.277344 298.855469 302.6875 290.683594 308.375 283.855469 C 315.828125 274.90625 333.132812 271.605469 358.421875 274.300781 C 376.933594 276.277344 378.371094 267.351562 380.03125 257.015625 C 381.078125 250.480469 382.269531 243.074219 388.09375 237.246094 C 397.484375 227.855469 420.5625 221.144531 437.394531 226.222656 C 447.519531 229.277344 453.929688 236.144531 455.9375 246.074219 C 457.597656 254.277344 458.625 261.757812 459.53125 268.359375 C 462.210938 287.84375 464.148438 301.921875 478.644531 316.421875 C 492.410156 330.1875 497.515625 353.710938 490.269531 369.96875 Z M 454.976562 271.859375 C 454.152344 265.882812 453.222656 259.105469 451.71875 251.660156 C 449.800781 242.175781 443.6875 235.621094 434.039062 232.710938 C 417.9375 227.851562 396.949219 234.238281 388.1875 243 C 382.617188 248.570312 381.507812 255.488281 380.527344 261.589844 C 379.023438 270.941406 377.941406 277.691406 362.515625 276.054688 C 338.886719 273.53125 323.285156 276.597656 316.152344 285.160156 C 310.601562 291.828125 312.136719 299.746094 313.050781 302.84375 C 315.457031 310.957031 322.144531 313.710938 328.617188 316.375 C 335.621094 319.257812 342.242188 321.980469 343.160156 331.324219 C 343.9375 339.242188 347.511719 345.707031 353.496094 350.011719 C 361.765625 355.96875 374.191406 357.445312 388.472656 354.175781 C 400.289062 351.46875 406.242188 356.914062 413.777344 363.808594 C 421.726562 371.082031 431.621094 380.128906 451.890625 381.207031 C 452.734375 381.25 453.558594 381.273438 454.375 381.273438 C 467.734375 381.273438 477.710938 375.308594 482.613281 364.304688 C 489.480469 348.898438 484.847656 327.46875 471.839844 314.460938 C 459.078125 301.699219 457.355469 289.183594 454.976562 271.859375 Z M 481.304688 363.71875 C 476.359375 374.816406 465.9375 380.523438 451.96875 379.777344 C 432.207031 378.726562 422.929688 370.238281 414.746094 362.75 C 408.539062 357.074219 403.035156 352.039062 394.277344 352.039062 C 392.398438 352.039062 390.371094 352.269531 388.152344 352.777344 C 374.273438 355.953125 362.265625 354.558594 354.332031 348.847656 C 348.695312 344.789062 345.324219 338.679688 344.585938 331.183594 C 343.582031 320.980469 336.25 317.964844 329.160156 315.046875 C 322.71875 312.398438 316.636719 309.894531 314.425781 302.4375 C 313.574219 299.5625 312.144531 292.210938 317.253906 286.078125 C 323.964844 278.019531 339.5625 275.046875 362.363281 277.476562 C 379.132812 279.269531 380.4375 271.179688 381.941406 261.816406 C 382.886719 255.929688 383.957031 249.257812 389.199219 244.015625 C 397.660156 235.554688 418.457031 229.507812 433.625 234.082031 C 442.738281 236.832031 448.507812 243.007812 450.316406 251.945312 C 451.8125 259.347656 452.738281 266.097656 453.558594 272.054688 C 455.976562 289.652344 457.726562 302.371094 470.828125 315.472656 C 483.230469 327.878906 487.832031 349.070312 481.304688 363.71875 Z M 449 275.554688 C 448.265625 270.222656 447.4375 264.175781 446.09375 257.53125 C 444.375 249.039062 438.902344 243.175781 430.269531 240.570312 C 415.878906 236.226562 397.125 241.933594 389.292969 249.769531 C 384.304688 254.753906 383.3125 260.9375 382.4375 266.390625 C 381.101562 274.691406 380.140625 280.683594 366.457031 279.226562 C 345.347656 276.976562 331.410156 279.71875 325.03125 287.378906 C 320.054688 293.355469 321.429688 300.449219 322.25 303.222656 C 324.40625 310.496094 330.390625 312.960938 336.179688 315.34375 C 342.40625 317.90625 348.289062 320.324219 349.105469 328.613281 C 349.800781 335.703125 353 341.484375 358.355469 345.339844 C 365.753906 350.664062 376.851562 351.988281 389.617188 349.066406 C 400.125 346.660156 405.417969 351.503906 412.121094 357.640625 C 419.222656 364.132812 428.058594 372.21875 446.167969 373.179688 C 446.921875 373.21875 447.660156 373.238281 448.390625 373.238281 C 460.339844 373.238281 469.261719 367.902344 473.648438 358.058594 C 479.785156 344.289062 475.644531 325.136719 464.019531 313.511719 C 452.65625 302.144531 451.121094 290.992188 449 275.554688 Z M 472.339844 357.476562 C 467.945312 367.339844 458.671875 372.414062 446.242188 371.75 C 428.648438 370.816406 420.382812 363.253906 413.089844 356.582031 C 407.542969 351.511719 402.621094 347.007812 394.785156 347.007812 C 393.105469 347.007812 391.285156 347.214844 389.296875 347.667969 C 376.945312 350.5 366.25 349.257812 359.191406 344.179688 C 354.183594 340.570312 351.1875 335.140625 350.53125 328.476562 C 349.632812 319.328125 343.070312 316.628906 336.722656 314.019531 C 330.996094 311.660156 325.585938 309.433594 323.625 302.816406 C 322.867188 300.265625 321.597656 293.738281 326.132812 288.296875 C 332.101562 281.128906 345.996094 278.488281 366.304688 280.652344 C 381.347656 282.257812 382.503906 275.011719 383.851562 266.621094 C 384.695312 261.378906 385.648438 255.441406 390.304688 250.78125 C 397.839844 243.25 416.351562 237.871094 429.855469 241.941406 C 435.503906 243.644531 442.660156 247.78125 444.6875 257.816406 C 446.023438 264.417969 446.851562 270.4375 447.582031 275.75 C 449.742188 291.464844 451.304688 302.816406 463.007812 314.523438 C 474.050781 325.570312 478.148438 344.433594 472.339844 357.476562 Z M 443.023438 279.25 C 442.378906 274.5625 441.648438 269.246094 440.46875 263.402344 C 438.953125 255.90625 434.125 250.726562 426.5 248.429688 C 413.824219 244.605469 397.300781 249.632812 390.398438 256.535156 C 385.996094 260.9375 385.121094 266.386719 384.347656 271.195312 C 383.183594 278.441406 382.332031 283.671875 370.398438 282.402344 C 351.8125 280.421875 339.539062 282.84375 333.914062 289.597656 C 329.511719 294.882812 330.726562 301.152344 331.449219 303.605469 C 333.355469 310.039062 338.636719 312.210938 343.742188 314.3125 C 349.191406 316.554688 354.339844 318.671875 355.050781 325.90625 C 355.664062 332.160156 358.488281 337.265625 363.21875 340.667969 C 369.738281 345.363281 379.523438 346.53125 390.765625 343.957031 C 399.949219 341.855469 404.59375 346.097656 410.464844 351.472656 C 416.71875 357.191406 424.496094 364.308594 440.445312 365.15625 C 441.105469 365.191406 441.761719 365.207031 442.402344 365.207031 C 452.941406 365.207031 460.8125 360.5 464.683594 351.8125 C 470.089844 339.679688 466.445312 322.804688 456.203125 312.5625 C 446.234375 302.589844 444.886719 292.800781 443.023438 279.25 Z M 463.375 351.226562 C 459.523438 359.863281 451.421875 364.300781 440.519531 363.722656 C 425.085938 362.902344 417.832031 356.269531 411.433594 350.414062 C 406.546875 345.941406 402.207031 341.972656 395.296875 341.972656 C 393.808594 341.972656 392.203125 342.15625 390.445312 342.558594 C 379.613281 345.039062 370.238281 343.957031 364.054688 339.503906 C 359.671875 336.347656 357.050781 331.597656 356.476562 325.765625 C 355.679688 317.675781 349.890625 315.292969 344.289062 312.988281 C 339.273438 310.921875 334.535156 308.972656 332.824219 303.195312 C 332.164062 300.96875 331.054688 295.265625 335.015625 290.515625 C 340.242188 284.238281 352.425781 281.925781 370.246094 283.828125 C 383.542969 285.246094 384.621094 278.527344 385.761719 271.421875 C 386.5 266.828125 387.339844 261.621094 391.410156 257.546875 C 398.015625 250.941406 414.25 246.226562 426.089844 249.796875 C 431.03125 251.289062 437.292969 254.910156 439.066406 263.6875 C 440.238281 269.484375 440.964844 274.773438 441.609375 279.441406 C 443.507812 293.269531 444.882812 303.261719 455.191406 313.574219 C 464.875 323.257812 468.46875 339.796875 463.375 351.226562 Z M 437.050781 282.941406 C 436.492188 278.898438 435.863281 274.316406 434.84375 269.273438 C 433.53125 262.773438 429.34375 258.28125 422.730469 256.289062 C 411.765625 252.980469 397.472656 257.328125 391.503906 263.300781 C 387.683594 267.121094 386.925781 271.835938 386.257812 275.996094 C 385.265625 282.191406 384.539062 286.660156 374.335938 285.578125 C 358.277344 283.867188 347.664062 285.964844 342.792969 291.816406 C 338.964844 296.410156 340.019531 301.859375 340.648438 303.988281 C 342.308594 309.578125 346.882812 311.460938 351.304688 313.28125 C 355.976562 315.203125 360.390625 317.019531 360.996094 323.195312 C 361.527344 328.621094 363.980469 333.046875 368.078125 335.996094 C 373.726562 340.0625 382.191406 341.078125 391.914062 338.847656 C 399.785156 337.046875 403.765625 340.691406 408.8125 345.308594 C 414.214844 350.25 420.933594 356.398438 434.722656 357.132812 C 435.296875 357.160156 435.863281 357.175781 436.417969 357.175781 C 445.546875 357.175781 452.363281 353.09375 455.714844 345.566406 C 460.394531 335.066406 457.242188 320.46875 448.386719 311.613281 C 439.8125 303.039062 438.652344 294.609375 437.050781 282.941406 Z M 454.40625 344.984375 C 451.105469 352.390625 444.148438 356.207031 434.796875 355.699219 C 421.523438 354.996094 415.28125 349.285156 409.777344 344.25 C 405.546875 340.378906 401.792969 336.945312 395.800781 336.945312 C 394.511719 336.945312 393.117188 337.105469 391.589844 337.453125 C 382.273438 339.585938 374.222656 338.65625 368.914062 334.835938 C 365.15625 332.128906 362.910156 328.058594 362.421875 323.058594 C 361.726562 316.023438 356.707031 313.957031 351.847656 311.957031 C 347.546875 310.1875 343.484375 308.515625 342.019531 303.578125 C 341.457031 301.671875 340.507812 296.796875 343.890625 292.734375 C 347.015625 288.976562 354.8125 284.933594 374.183594 287.003906 C 385.738281 288.238281 386.679688 282.398438 387.671875 276.222656 C 388.304688 272.277344 389.023438 267.804688 392.515625 264.3125 C 398.1875 258.640625 412.140625 254.589844 422.316406 257.660156 C 426.550781 258.9375 431.917969 262.039062 433.4375 269.558594 C 434.449219 274.554688 435.074219 279.113281 435.628906 283.136719 C 437.269531 295.082031 438.457031 303.710938 447.371094 312.625 C 455.695312 320.945312 458.785156 335.160156 454.40625 344.984375 Z M 454.40625 344.984375 " fill-opacity="1" fill-rule="nonzero"/></g><g clip-path="url(#id4)"><path fill="#000000" d="M 466.382812 240.410156 C 466.5 240.207031 466.613281 240.003906 466.742188 239.808594 C 466.839844 239.660156 467.113281 239.410156 467.144531 239.242188 C 467.136719 239.285156 466.832031 239.613281 467.0625 239.359375 C 467.144531 239.261719 467.226562 239.167969 467.308594 239.074219 C 467.480469 238.886719 467.648438 238.703125 467.832031 238.535156 C 467.980469 238.386719 468.136719 238.253906 468.300781 238.113281 C 468.382812 238.042969 468.472656 237.984375 468.546875 237.910156 C 468.75 237.714844 468.132812 238.207031 468.484375 237.957031 C 468.867188 237.6875 469.246094 237.433594 469.65625 237.210938 C 469.839844 237.109375 470.027344 237.007812 470.21875 236.914062 C 470.335938 236.859375 470.449219 236.804688 470.566406 236.75 C 470.960938 236.5625 470.21875 236.878906 470.492188 236.777344 C 470.953125 236.617188 471.402344 236.441406 471.878906 236.3125 C 472.292969 236.207031 472.707031 236.125 473.125 236.042969 C 473.558594 235.964844 472.730469 236.078125 473.019531 236.058594 C 473.128906 236.050781 473.230469 236.03125 473.339844 236.023438 C 473.59375 235.996094 473.851562 235.984375 474.101562 235.976562 C 474.523438 235.964844 474.953125 235.976562 475.375 236.011719 C 475.484375 236.015625 475.644531 236.066406 475.753906 236.050781 C 475.359375 236.113281 475.414062 235.996094 475.652344 236.039062 C 475.90625 236.085938 476.148438 236.125 476.394531 236.179688 C 476.824219 236.28125 477.25 236.40625 477.667969 236.554688 C 477.71875 236.578125 477.851562 236.652344 477.902344 236.652344 C 477.824219 236.617188 477.734375 236.578125 477.652344 236.542969 C 477.726562 236.578125 477.808594 236.609375 477.882812 236.644531 C 478.113281 236.75 478.339844 236.867188 478.5625 236.992188 C 478.769531 237.109375 478.964844 237.230469 479.164062 237.363281 C 479.269531 237.4375 479.378906 237.511719 479.488281 237.585938 C 479.578125 237.652344 479.890625 237.855469 479.523438 237.601562 C 479.992188 237.929688 480.421875 238.355469 480.828125 238.75 C 481.664062 239.574219 482.421875 240.476562 483.167969 241.386719 C 484.636719 243.175781 486.066406 244.960938 487.921875 246.382812 C 489.886719 247.882812 492.246094 248.976562 494.789062 248.867188 C 499.753906 248.664062 503.121094 244.765625 506.066406 241.269531 C 506.761719 240.441406 507.472656 239.632812 508.25 238.878906 C 508.652344 238.488281 509.066406 238.105469 509.5 237.75 C 509.542969 237.714844 509.703125 237.554688 509.738281 237.558594 C 509.679688 237.605469 509.625 237.648438 509.5625 237.695312 C 509.644531 237.632812 509.726562 237.574219 509.808594 237.519531 C 510.046875 237.34375 510.296875 237.175781 510.546875 237.019531 C 510.941406 236.777344 511.390625 236.46875 511.839844 236.339844 C 511.28125 236.496094 512.03125 236.285156 512.167969 236.238281 C 512.445312 236.152344 512.722656 236.085938 513.003906 236.03125 C 513.050781 236.023438 513.097656 236.011719 513.144531 236.003906 C 513.371094 235.96875 513.335938 235.96875 513.039062 236.015625 C 513.105469 236.03125 513.253906 235.996094 513.328125 235.992188 C 513.582031 235.96875 513.839844 235.96875 514.089844 235.976562 C 514.296875 235.984375 514.5 236.015625 514.695312 236.023438 C 514.675781 236.023438 514.152344 235.9375 514.480469 235.996094 C 514.621094 236.023438 514.765625 236.050781 514.902344 236.085938 C 515.246094 236.164062 515.59375 236.273438 515.929688 236.394531 C 516.445312 236.589844 515.535156 236.207031 516.03125 236.441406 C 516.226562 236.535156 516.417969 236.628906 516.609375 236.730469 C 516.925781 236.90625 517.242188 237.101562 517.539062 237.304688 C 517.710938 237.417969 517.871094 237.539062 518.035156 237.652344 C 518.160156 237.742188 518.355469 237.945312 517.933594 237.574219 C 518.035156 237.660156 518.144531 237.734375 518.246094 237.824219 C 519.539062 238.867188 520.695312 240.058594 521.878906 241.210938 C 524.503906 243.753906 527.433594 246.1875 531.261719 246.414062 C 536.464844 246.726562 540.417969 242.683594 543.613281 239.191406 C 544.363281 238.375 545.117188 237.566406 545.917969 236.804688 C 546.300781 236.449219 546.6875 236.105469 547.097656 235.773438 C 547.171875 235.714844 547.53125 235.363281 547.175781 235.707031 C 547.265625 235.621094 547.386719 235.554688 547.492188 235.480469 C 547.742188 235.296875 548.007812 235.128906 548.273438 234.96875 C 548.515625 234.820312 548.769531 234.675781 549.027344 234.550781 C 549.121094 234.503906 549.21875 234.457031 549.3125 234.414062 C 549.355469 234.394531 549.386719 234.382812 549.429688 234.359375 C 549.625 234.273438 549.578125 234.292969 549.285156 234.414062 C 549.46875 234.402344 549.699219 234.253906 549.871094 234.199219 C 550.109375 234.117188 550.347656 234.050781 550.589844 233.996094 C 550.796875 233.949219 550.992188 233.902344 551.195312 233.871094 C 551.320312 233.847656 551.449219 233.84375 551.5625 233.808594 C 551.53125 233.816406 551.046875 233.863281 551.394531 233.835938 C 551.851562 233.800781 552.296875 233.773438 552.761719 233.789062 C 552.972656 233.796875 553.175781 233.808594 553.378906 233.820312 C 553.496094 233.828125 553.636719 233.871094 553.753906 233.863281 C 553.296875 233.902344 553.433594 233.816406 553.644531 233.847656 C 554.121094 233.929688 554.589844 234.023438 555.054688 234.160156 C 555.257812 234.21875 555.453125 234.28125 555.652344 234.347656 C 555.820312 234.402344 556.074219 234.5625 556.242188 234.5625 C 555.921875 234.5625 555.917969 234.414062 556.160156 234.527344 C 556.257812 234.578125 556.351562 234.617188 556.445312 234.65625 C 556.671875 234.765625 556.894531 234.878906 557.121094 235 C 557.488281 235.203125 557.839844 235.425781 558.179688 235.660156 C 558.257812 235.714844 558.390625 235.855469 558.488281 235.882812 C 558.1875 235.808594 558.214844 235.660156 558.417969 235.835938 C 558.609375 235.996094 558.800781 236.152344 558.984375 236.320312 C 559.304688 236.617188 559.601562 236.925781 559.886719 237.257812 C 559.941406 237.316406 559.992188 237.382812 560.042969 237.445312 C 560.332031 237.78125 559.773438 237.0625 560.03125 237.425781 C 560.175781 237.628906 560.316406 237.828125 560.445312 238.039062 C 560.664062 238.386719 560.855469 238.75 561.039062 239.121094 C 561.234375 239.519531 560.875 238.675781 561.023438 239.09375 C 561.050781 239.175781 561.085938 239.25 561.113281 239.324219 C 561.199219 239.558594 561.277344 239.796875 561.34375 240.039062 C 561.628906 241.054688 562.800781 241.789062 563.851562 241.453125 C 564.902344 241.117188 565.585938 240.058594 565.28125 238.96875 C 564.105469 234.894531 560.71875 231.835938 556.726562 230.46875 C 554.734375 229.789062 552.613281 229.625 550.53125 229.921875 C 548.246094 230.253906 546.238281 231.335938 544.445312 232.738281 C 542.613281 234.164062 541.109375 235.9375 539.539062 237.628906 C 538.738281 238.488281 537.90625 239.332031 537.003906 240.085938 C 536.902344 240.167969 536.253906 240.664062 536.648438 240.375 C 536.433594 240.535156 536.214844 240.691406 535.988281 240.847656 C 535.460938 241.203125 534.902344 241.527344 534.324219 241.796875 C 534.25 241.828125 534.113281 241.917969 534.039062 241.925781 C 534.105469 241.898438 534.167969 241.871094 534.234375 241.84375 C 534.140625 241.882812 534.039062 241.917969 533.941406 241.957031 C 533.699219 242.046875 533.445312 242.125 533.203125 242.191406 C 532.949219 242.261719 532.699219 242.308594 532.441406 242.363281 C 531.929688 242.46875 532.890625 242.347656 532.367188 242.367188 C 532.183594 242.375 532 242.394531 531.816406 242.394531 C 531.535156 242.402344 531.261719 242.375 530.992188 242.363281 C 530.660156 242.347656 531.175781 242.386719 531.203125 242.394531 C 531.09375 242.367188 530.984375 242.363281 530.875 242.339844 C 530.480469 242.265625 530.09375 242.160156 529.714844 242.03125 C 529.609375 241.996094 529.507812 241.957031 529.40625 241.917969 C 529.019531 241.777344 529.863281 242.132812 529.496094 241.949219 C 529.332031 241.871094 529.167969 241.796875 529.003906 241.714844 C 528.644531 241.527344 528.296875 241.324219 527.957031 241.09375 C 527.800781 240.996094 527.652344 240.886719 527.496094 240.777344 C 527.40625 240.710938 527.320312 240.636719 527.222656 240.578125 C 527.71875 240.886719 527.394531 240.710938 527.277344 240.617188 C 526.945312 240.355469 526.625 240.085938 526.304688 239.800781 C 523.722656 237.519531 521.46875 234.652344 518.328125 233.074219 C 516.398438 232.105469 514.34375 231.742188 512.195312 232.085938 C 509.792969 232.46875 507.671875 233.890625 505.917969 235.492188 C 504.242188 237.015625 502.902344 238.820312 501.40625 240.496094 C 500.695312 241.304688 499.9375 242.078125 499.121094 242.785156 C 499.007812 242.886719 498.890625 242.980469 498.777344 243.082031 C 498.703125 243.144531 498.335938 243.484375 498.714844 243.136719 C 498.53125 243.296875 498.308594 243.433594 498.101562 243.566406 C 497.652344 243.863281 497.183594 244.121094 496.695312 244.363281 C 496.246094 244.578125 497.117188 244.21875 496.648438 244.382812 C 496.53125 244.421875 496.421875 244.460938 496.308594 244.503906 C 496.054688 244.589844 495.804688 244.65625 495.546875 244.71875 C 495.449219 244.738281 495.355469 244.757812 495.261719 244.78125 C 495.210938 244.785156 495.164062 244.792969 495.117188 244.804688 C 494.894531 244.839844 494.925781 244.832031 495.226562 244.792969 C 495.089844 244.902344 494.519531 244.832031 494.335938 244.828125 C 494.179688 244.820312 494.027344 244.804688 493.871094 244.800781 C 493.476562 244.78125 493.914062 244.820312 493.960938 244.8125 C 493.703125 244.847656 493.316406 244.683594 493.070312 244.617188 C 492.859375 244.558594 492.527344 244.511719 492.347656 244.375 C 492.683594 244.625 492.5 244.441406 492.347656 244.367188 C 492.1875 244.292969 492.03125 244.214844 491.867188 244.132812 C 491.382812 243.875 490.929688 243.585938 490.492188 243.269531 C 490.398438 243.195312 490.089844 243.027344 490.464844 243.257812 C 490.335938 243.175781 490.214844 243.054688 490.097656 242.960938 C 489.859375 242.757812 489.621094 242.550781 489.390625 242.335938 C 488.546875 241.539062 487.792969 240.664062 487.050781 239.769531 C 485.597656 238.003906 484.203125 236.164062 482.394531 234.738281 C 480.636719 233.355469 478.652344 232.394531 476.414062 232.085938 C 472.199219 231.503906 467.722656 232.824219 464.722656 235.890625 C 464.003906 236.625 463.363281 237.464844 462.859375 238.359375 C 462.34375 239.285156 462.601562 240.609375 463.59375 241.121094 C 464.554688 241.632812 465.824219 241.390625 466.382812 240.410156 Z M 466.382812 240.410156 " fill-opacity="1" fill-rule="nonzero"/></g><g clip-path="url(#id5)"><path fill="#000000" d="M 562.226562 230.796875 C 562.308594 233.863281 562.398438 236.933594 562.480469 239.996094 C 562.507812 241.054688 563.398438 242.066406 564.519531 242.019531 C 565.601562 241.972656 566.59375 241.128906 566.558594 239.996094 C 566.476562 236.933594 566.390625 233.871094 566.308594 230.796875 C 566.28125 229.746094 565.390625 228.730469 564.269531 228.777344 C 563.1875 228.824219 562.199219 229.667969 562.226562 230.796875 Z M 562.226562 230.796875 " fill-opacity="1" fill-rule="nonzero"/></g><g clip-path="url(#id6)"><path fill="#000000" d="M 564.273438 238.339844 C 561.554688 238.609375 558.835938 238.886719 556.113281 239.15625 C 555.554688 239.210938 555.082031 239.34375 554.671875 239.75 C 554.320312 240.097656 554.054688 240.671875 554.074219 241.175781 C 554.121094 242.179688 554.976562 243.3125 556.113281 243.195312 C 558.835938 242.925781 561.554688 242.652344 564.273438 242.382812 C 564.832031 242.328125 565.308594 242.191406 565.714844 241.789062 C 566.070312 241.4375 566.34375 240.867188 566.316406 240.363281 C 566.273438 239.359375 565.410156 238.226562 564.273438 238.339844 Z M 564.273438 238.339844 " fill-opacity="1" fill-rule="nonzero"/></g><g fill="#000000" fill-opacity="1"><g transform="translate(419.815867, 329.859409)"><g><path d="M -21 -16.46875 L 0 -17.640625 L 0 -13.3125 L -8.984375 -13.0625 C -9.816406 -13.039062 -10.5625 -13.03125 -11.21875 -13.03125 C -11.875 -13.039062 -12.492188 -13.054688 -13.078125 -13.078125 C -13.660156 -13.097656 -14.242188 -13.128906 -14.828125 -13.171875 C -15.421875 -13.210938 -16.066406 -13.257812 -16.765625 -13.3125 L -3.578125 -10.953125 L -3.578125 -7.203125 L -16.765625 -4.65625 C -16.097656 -4.707031 -15.46875 -4.753906 -14.875 -4.796875 C -14.289062 -4.847656 -13.695312 -4.882812 -13.09375 -4.90625 C -12.5 -4.925781 -11.863281 -4.941406 -11.1875 -4.953125 C -10.507812 -4.960938 -9.75 -4.957031 -8.90625 -4.9375 L 0 -4.78125 L 0 -0.53125 L -21 -1.71875 L -21 -6.8125 L -7.421875 -9.15625 L -21 -11.359375 Z M -21 -16.46875 "/></g></g></g><g fill="#000000" fill-opacity="1"><g transform="translate(419.815867, 311.680634)"><g><path d="M -21 -16.90625 L -7.03125 -16.90625 C -5.59375 -16.90625 -4.304688 -16.613281 -3.171875 -16.03125 C -2.035156 -15.445312 -1.132812 -14.578125 -0.46875 -13.421875 C 0.1875 -12.265625 0.515625 -10.820312 0.515625 -9.09375 C 0.515625 -7.34375 0.195312 -5.890625 -0.4375 -4.734375 C -1.070312 -3.578125 -1.953125 -2.707031 -3.078125 -2.125 C -4.210938 -1.550781 -5.53125 -1.265625 -7.03125 -1.265625 L -21 -1.265625 L -21 -6.25 L -8.875 -6.25 C -6.988281 -6.25 -5.566406 -6.421875 -4.609375 -6.765625 C -3.660156 -7.109375 -3.1875 -7.882812 -3.1875 -9.09375 C -3.1875 -10.289062 -3.660156 -11.0625 -4.609375 -11.40625 C -5.566406 -11.75 -6.988281 -11.921875 -8.875 -11.921875 L -21 -11.921875 Z M -21 -16.90625 "/></g></g></g><g fill="#000000" fill-opacity="1"><g transform="translate(462.750125, 249.933774)"><g><path d="M 16.078125 -20.859375 L 17.25 0 L 14.71875 0 L 14.078125 -10.890625 C 14.046875 -11.628906 14.015625 -12.375 13.984375 -13.125 C 13.953125 -13.882812 13.929688 -14.613281 13.921875 -15.3125 C 13.910156 -16.007812 13.90625 -16.628906 13.90625 -17.171875 C 13.90625 -17.722656 13.90625 -18.148438 13.90625 -18.453125 L 10.390625 -3.734375 L 7.75 -3.734375 L 3.984375 -18.453125 C 3.992188 -18.160156 4.003906 -17.726562 4.015625 -17.15625 C 4.023438 -16.582031 4.03125 -15.9375 4.03125 -15.21875 C 4.039062 -14.507812 4.035156 -13.773438 4.015625 -13.015625 C 4.003906 -12.265625 3.984375 -11.566406 3.953125 -10.921875 L 3.390625 0 L 0.921875 0 L 2.109375 -20.859375 L 5.765625 -20.859375 L 9.15625 -6.578125 L 12.375 -20.859375 Z M 16.078125 -20.859375 "/></g></g></g><g fill="#000000" fill-opacity="1"><g transform="translate(480.9289, 249.933774)"><g><path d="M 15.984375 -20.859375 L 15.984375 -6.75 C 15.984375 -5.351562 15.695312 -4.117188 15.125 -3.046875 C 14.550781 -1.972656 13.75 -1.140625 12.71875 -0.546875 C 11.6875 0.046875 10.46875 0.34375 9.0625 0.34375 C 7.625 0.34375 6.390625 0.046875 5.359375 -0.546875 C 4.335938 -1.148438 3.554688 -1.988281 3.015625 -3.0625 C 2.472656 -4.132812 2.203125 -5.363281 2.203125 -6.75 L 2.203125 -20.859375 L 4.796875 -20.859375 L 4.796875 -6.671875 C 4.796875 -5.078125 5.164062 -3.882812 5.90625 -3.09375 C 6.65625 -2.3125 7.707031 -1.921875 9.0625 -1.921875 C 10.425781 -1.921875 11.476562 -2.3125 12.21875 -3.09375 C 12.957031 -3.882812 13.328125 -5.078125 13.328125 -6.671875 L 13.328125 -20.859375 Z M 15.984375 -20.859375 "/></g></g></g><g fill="#000000" fill-opacity="1"><g transform="translate(499.107675, 249.933774)"><g><path d="M 10.34375 -18.609375 L 10.34375 0 L 7.71875 0 L 7.71875 -18.609375 L 1.21875 -18.609375 L 1.21875 -20.859375 L 16.953125 -20.859375 L 16.671875 -18.609375 Z M 10.34375 -18.609375 "/></g></g></g><g fill="#000000" fill-opacity="1"><g transform="translate(517.286449, 249.933774)"><g><path d="M 6.4375 -18.703125 L 6.4375 -11.671875 L 14.15625 -11.671875 L 14.15625 -9.515625 L 6.4375 -9.515625 L 6.4375 -2.109375 L 15.921875 -2.109375 L 15.921875 0 L 3.796875 0 L 3.796875 -20.859375 L 15.640625 -20.859375 L 15.34375 -18.703125 Z M 6.4375 -18.703125 "/></g></g></g><g fill="#000000" fill-opacity="1"><g transform="translate(535.465224, 249.933774)"><g><path d="M 13.9375 -10.53125 C 13.9375 -12.34375 13.742188 -13.796875 13.359375 -14.890625 C 12.972656 -15.984375 12.46875 -16.800781 11.84375 -17.34375 C 11.21875 -17.882812 10.535156 -18.242188 9.796875 -18.421875 C 9.054688 -18.609375 8.328125 -18.703125 7.609375 -18.703125 L 5.15625 -18.703125 L 5.15625 -2.109375 L 7.640625 -2.109375 C 8.378906 -2.109375 9.117188 -2.222656 9.859375 -2.453125 C 10.609375 -2.691406 11.289062 -3.117188 11.90625 -3.734375 C 12.519531 -4.347656 13.007812 -5.203125 13.375 -6.296875 C 13.75 -7.390625 13.9375 -8.800781 13.9375 -10.53125 Z M 16.734375 -10.53125 C 16.734375 -8.34375 16.453125 -6.5625 15.890625 -5.1875 C 15.328125 -3.8125 14.578125 -2.742188 13.640625 -1.984375 C 12.710938 -1.234375 11.695312 -0.710938 10.59375 -0.421875 C 9.488281 -0.140625 8.394531 0 7.3125 0 L 2.53125 0 L 2.53125 -20.859375 L 6.984375 -20.859375 C 8.203125 -20.859375 9.390625 -20.722656 10.546875 -20.453125 C 11.703125 -20.179688 12.75 -19.675781 13.6875 -18.9375 C 14.625 -18.207031 15.363281 -17.164062 15.90625 -15.8125 C 16.457031 -14.457031 16.734375 -12.695312 16.734375 -10.53125 Z M 16.734375 -10.53125 "/></g></g></g><g fill="#000000" fill-opacity="1"><g transform="translate(462.750125, 285.59419)"><g><path d="M 16.078125 -20.859375 L 17.25 0 L 14.71875 0 L 14.078125 -10.890625 C 14.046875 -11.628906 14.015625 -12.375 13.984375 -13.125 C 13.953125 -13.882812 13.929688 -14.613281 13.921875 -15.3125 C 13.910156 -16.007812 13.90625 -16.628906 13.90625 -17.171875 C 13.90625 -17.722656 13.90625 -18.148438 13.90625 -18.453125 L 10.390625 -3.734375 L 7.75 -3.734375 L 3.984375 -18.453125 C 3.992188 -18.160156 4.003906 -17.726562 4.015625 -17.15625 C 4.023438 -16.582031 4.03125 -15.9375 4.03125 -15.21875 C 4.039062 -14.507812 4.035156 -13.773438 4.015625 -13.015625 C 4.003906 -12.265625 3.984375 -11.566406 3.953125 -10.921875 L 3.390625 0 L 0.921875 0 L 2.109375 -20.859375 L 5.765625 -20.859375 L 9.15625 -6.578125 L 12.375 -20.859375 Z M 16.078125 -20.859375 "/></g></g></g><g fill="#000000" fill-opacity="1"><g transform="translate(480.9289, 285.59419)"><g><path d="M 15.0625 -20.859375 L 15.0625 -18.75 L 10.421875 -18.75 L 10.421875 -2.109375 L 15.0625 -2.109375 L 15.0625 0 L 3.125 0 L 3.125 -2.109375 L 7.75 -2.109375 L 7.75 -18.75 L 3.125 -18.75 L 3.125 -20.859375 Z M 15.0625 -20.859375 "/></g></g></g><g fill="#000000" fill-opacity="1"><g transform="translate(499.107675, 285.59419)"><g><path d="M 4.109375 0 L 4.109375 -20.859375 L 6.734375 -20.859375 L 6.734375 -2.34375 L 16.25 -2.34375 L 15.953125 0 Z M 4.109375 0 "/></g></g></g><g fill="#000000" fill-opacity="1"><g transform="translate(517.286449, 285.59419)"><g><path d="M 5.796875 0 L 3.1875 0 L 3.1875 -20.859375 L 5.796875 -20.859375 Z M 5.953125 -11.140625 L 14.15625 -20.859375 L 17.1875 -20.859375 L 9.046875 -11.296875 L 17.765625 0 L 14.5 0 Z M 5.953125 -11.140625 "/></g></g></g><g fill="#000000" fill-opacity="1"><g transform="translate(535.465224, 285.59419)"><g><path d="M 6.4375 -18.703125 L 6.4375 -11.671875 L 14.15625 -11.671875 L 14.15625 -9.515625 L 6.4375 -9.515625 L 6.4375 -2.109375 L 15.921875 -2.109375 L 15.921875 0 L 3.796875 0 L 3.796875 -20.859375 L 15.640625 -20.859375 L 15.34375 -18.703125 Z M 6.4375 -18.703125 "/></g></g></g><g fill="#000000" fill-opacity="1"><g transform="translate(553.643998, 285.59419)"><g><path d="M 13.9375 -10.53125 C 13.9375 -12.34375 13.742188 -13.796875 13.359375 -14.890625 C 12.972656 -15.984375 12.46875 -16.800781 11.84375 -17.34375 C 11.21875 -17.882812 10.535156 -18.242188 9.796875 -18.421875 C 9.054688 -18.609375 8.328125 -18.703125 7.609375 -18.703125 L 5.15625 -18.703125 L 5.15625 -2.109375 L 7.640625 -2.109375 C 8.378906 -2.109375 9.117188 -2.222656 9.859375 -2.453125 C 10.609375 -2.691406 11.289062 -3.117188 11.90625 -3.734375 C 12.519531 -4.347656 13.007812 -5.203125 13.375 -6.296875 C 13.75 -7.390625 13.9375 -8.800781 13.9375 -10.53125 Z M 16.734375 -10.53125 C 16.734375 -8.34375 16.453125 -6.5625 15.890625 -5.1875 C 15.328125 -3.8125 14.578125 -2.742188 13.640625 -1.984375 C 12.710938 -1.234375 11.695312 -0.710938 10.59375 -0.421875 C 9.488281 -0.140625 8.394531 0 7.3125 0 L 2.53125 0 L 2.53125 -20.859375 L 6.984375 -20.859375 C 8.203125 -20.859375 9.390625 -20.722656 10.546875 -20.453125 C 11.703125 -20.179688 12.75 -19.675781 13.6875 -18.9375 C 14.625 -18.207031 15.363281 -17.164062 15.90625 -15.8125 C 16.457031 -14.457031 16.734375 -12.695312 16.734375 -10.53125 Z M 16.734375 -10.53125 "/></g></g></g><g fill="#000000" fill-opacity="1"><g transform="translate(571.822773, 285.59419)"><g/></g></g><g fill="#000000" fill-opacity="1"><g transform="translate(590.001548, 285.59419)"><g><path d="M 15.984375 -20.859375 L 15.984375 -6.75 C 15.984375 -5.351562 15.695312 -4.117188 15.125 -3.046875 C 14.550781 -1.972656 13.75 -1.140625 12.71875 -0.546875 C 11.6875 0.046875 10.46875 0.34375 9.0625 0.34375 C 7.625 0.34375 6.390625 0.046875 5.359375 -0.546875 C 4.335938 -1.148438 3.554688 -1.988281 3.015625 -3.0625 C 2.472656 -4.132812 2.203125 -5.363281 2.203125 -6.75 L 2.203125 -20.859375 L 4.796875 -20.859375 L 4.796875 -6.671875 C 4.796875 -5.078125 5.164062 -3.882812 5.90625 -3.09375 C 6.65625 -2.3125 7.707031 -1.921875 9.0625 -1.921875 C 10.425781 -1.921875 11.476562 -2.3125 12.21875 -3.09375 C 12.957031 -3.882812 13.328125 -5.078125 13.328125 -6.671875 L 13.328125 -20.859375 Z M 15.984375 -20.859375 "/></g></g></g><g fill="#000000" fill-opacity="1"><g transform="translate(608.180322, 285.59419)"><g><path d="M 15.0625 -20.859375 L 15.0625 -18.75 L 10.421875 -18.75 L 10.421875 -2.109375 L 15.0625 -2.109375 L 15.0625 0 L 3.125 0 L 3.125 -2.109375 L 7.75 -2.109375 L 7.75 -18.75 L 3.125 -18.75 L 3.125 -20.859375 Z M 15.0625 -20.859375 "/></g></g></g></svg>